<?xml version="1.0" encoding="utf-8"?>
<!-- Svg Vector Icons : http://www.onlinewebfonts.com/icon -->
<!DOCTYPE svg PUBLIC "-//W3C//DTD SVG 1.1//EN" "http://www.w3.org/Graphics/SVG/1.1/DTD/svg11.dtd">
<svg version="1.1" xmlns="http://www.w3.org/2000/svg" xmlns:xlink="http://www.w3.org/1999/xlink" x="0px" y="0px" viewBox="0 0 1000 1000" enable-background="new 0 0 1000 1000" xml:space="preserve">
<metadata> Svg Vector Icons : http://www.onlinewebfonts.com/icon </metadata>
<g><path d="M575.9,314.8h387.9v50.8H575.9V314.8z"/><path d="M520.5,907.2V34H77.2v873.1H10v58.8h585.6v-25c-10.2-10.5-19.4-21.8-27.6-33.8H520.5z M243.5,697.8H132.6V586.9h110.8V697.8z M243.5,477.3H132.6V366.5h110.8V477.3z M243.5,254.5H132.6V143.7h110.8V254.5z M461.6,697.8H350.8V586.9h110.8V697.8z M461.6,477.3H350.8V366.5h110.8V477.3z M461.6,254.5H350.8V143.7h110.8V254.5z"/><path d="M682,518c32.3-13.7,66.6-20.6,101.9-20.6c35.3,0,69.6,6.9,101.9,20.6c28.9,12.2,55.1,29.4,78,51V426.5H575.9v173.7c7-9.2,14.6-17.9,22.9-26.2C622.8,550.1,650.8,531.2,682,518z"/><path d="M783.6,553.1c-113.8,0-206.4,92.6-206.4,206.4c0,113.8,92.6,206.4,206.4,206.4C897.4,966,990,873.3,990,759.5C990,645.7,897.4,553.1,783.6,553.1z M908.9,784.1H808.2v100.8c0,13.6-11,24.6-24.6,24.6c-13.6,0-24.6-11-24.6-24.6V784.1H658.2c-13.6,0-24.6-11-24.6-24.6c0-13.6,11-24.6,24.6-24.6H759V634.1c0-13.6,11-24.6,24.6-24.6c13.6,0,24.6,11,24.6,24.6v100.8h100.8c13.6,0,24.6,11,24.6,24.6C933.5,773.1,922.5,784.1,908.9,784.1z"/></g>
</svg>